<?xml version="1.0" encoding="utf-8"?>
<!-- Generator: Adobe Illustrator 16.0.0, SVG Export Plug-In . SVG Version: 6.00 Build 0)  -->
<!DOCTYPE svg PUBLIC "-//W3C//DTD SVG 1.1//EN" "http://www.w3.org/Graphics/SVG/1.1/DTD/svg11.dtd">
<svg version="1.1" id="Layer_1" xmlns="http://www.w3.org/2000/svg" xmlns:xlink="http://www.w3.org/1999/xlink" x="0px" y="0px"
	 width="500px" height="500px" viewBox="0 0 500 500" enable-background="new 0 0 500 500" xml:space="preserve">
<polygon display="none" fill="#FFFFFF" stroke="#000000" stroke-miterlimit="10" points="378.4,324.659 248.4,399.715 
	118.4,324.659 118.4,174.548 248.4,99.492 378.4,174.548 "/>
<polygon fill="none" points="335.401,299.604 248.401,349.604 161.401,299.604 161.401,199.604 248.401,149.604 335.401,199.604 "/>
<polygon fill="#572C89" points="162,249.663 118.5,224.837 118.5,174.837 162,199.663 "/>
<polygon fill="#1C3D8F" points="162,299.663 118.5,274.837 118.5,224.837 162,249.663 "/>
<polygon fill="#EB7F26" points="378.25,224.837 335,249.663 335,199.663 378.25,174.837 "/>
<polygon fill="#F0A224" points="378.25,274.337 335,299.163 335,249.163 378.25,224.337 "/>
<polygon fill="#E55B55" points="378.207,174.962 335.135,199.827 292.508,174.586 335.582,149.721 "/>
<polygon fill="#E1403E" points="335.567,149.937 292.318,174.619 248.516,149.33 291.766,124.647 "/>
<polygon fill="#0661A7" points="162,349.163 118.5,324.337 118.5,274.337 162,299.163 "/>
<polygon fill="#14A2A5" points="205.5,374.163 162,349.337 162,299.337 205.5,324.163 "/>
<polygon fill="#15A1C0" points="248.5,398.913 205.5,374.087 205.5,324.087 248.5,348.913 "/>
<polygon fill="#159E5B" points="248.75,398.913 292.75,374.087 292.75,324.087 248.75,348.913 "/>
<polygon fill="#6EB647" points="292.25,374.163 335.667,349.337 335.667,299.337 292.25,324.163 "/>
<polygon fill="#F5EA2B" points="335.084,349.788 378.167,324.796 378.167,274.462 335.084,299.454 "/>
<polygon fill="#E12426" points="291.817,124.504 248.817,149.33 205.516,124.33 248.517,99.503 "/>
<polygon fill="#BA1D71" points="248.954,149.504 205.568,174.763 162.129,149.763 205.516,124.504 "/>
<polygon fill="#992384" points="205.883,174.629 162.267,199.798 118.508,174.739 162.126,149.569 "/>
</svg>
